<svg width="262" height="40" viewBox="0 0 262 40" fill="none" xmlns="http://www.w3.org/2000/svg">
<g clip-path="url(#clip0_379_153304)">
<path d="M0 32.5354V7.09204H8.47113C11.8907 7.09204 14.5849 7.61827 16.5796 8.64443C18.5484 9.67059 20.2064 11.2756 21.3203 13.2227C22.4861 15.2224 23.1078 17.5115 23.0819 19.8269C23.0819 25.0366 19.8955 29.7201 15.0771 31.5619C14.2481 31.904 13.3673 32.1671 12.4606 32.3249C11.6834 32.4565 10.155 32.5091 7.92711 32.5091L0 32.5354ZM8.08255 10.3284H3.60088V29.2991H8.21207C9.99956 29.2991 11.3985 29.1675 12.3829 28.9307C13.2378 28.7202 14.0926 28.4045 14.8698 27.9835C15.5434 27.5888 16.1392 27.1152 16.6832 26.5627C18.4707 24.7472 19.3515 22.4318 19.3515 19.6427C19.3515 16.9063 18.4448 14.6698 16.6314 12.9332C15.9578 12.2754 15.1807 11.7492 14.3258 11.3545C13.5486 10.9599 12.7196 10.6967 11.8648 10.5389C10.5954 10.381 9.35192 10.3021 8.08255 10.3284Z" fill="#F0292A"/>
<path d="M33.1859 15.7488C35.6987 15.7488 37.7971 16.5644 39.455 18.2221C41.113 19.8797 41.942 21.932 41.942 24.4316C41.9938 26.7207 41.0612 28.9309 39.4032 30.457C37.7193 32.062 35.5951 32.8514 33.0304 32.8514C30.5435 32.8514 28.471 32.0357 26.8131 30.4044C25.181 28.8257 24.2743 26.6155 24.3261 24.3264C24.2743 22.011 25.181 19.7745 26.839 18.1958C28.5488 16.5908 30.6471 15.7488 33.1859 15.7488ZM33.0045 18.7483C31.5538 18.6957 30.1549 19.2745 29.1446 20.327C28.1343 21.3795 27.6421 22.7214 27.6421 24.3264C27.6421 25.9314 28.1602 27.247 29.1964 28.2731C30.2326 29.2993 31.5538 29.7992 33.16 29.7992C34.7661 29.7992 36.0873 29.273 37.0976 28.2468C38.1079 27.2207 38.626 25.9051 38.626 24.3001C38.6778 22.8003 38.082 21.3795 37.0199 20.327C35.9578 19.3009 34.507 18.722 33.0045 18.7483Z" fill="#F0292A"/>
<path d="M47.0184 15.7752V17.9328C48.4691 16.2751 50.1271 15.4595 51.9923 15.4595C53.0026 15.4595 53.987 15.7489 54.8678 16.2751C55.7486 16.8014 56.448 17.5644 56.8884 18.5116C57.3547 19.4588 57.5879 20.9586 57.5879 22.9846V32.5884H54.3238V23.0372C54.3238 21.327 54.0647 20.0903 53.5466 19.3536C53.0285 18.6169 52.1736 18.2485 50.956 18.2485C49.4017 18.2485 48.0805 19.0379 47.0184 20.6166V32.5884H43.6766V15.7752H47.0184Z" fill="#F0292A"/>
<path d="M74.4009 24.1945C74.4009 24.1945 66.3702 25.3259 62.7693 24.6681C62.0439 24.5365 63.4946 27.5361 64.505 28.4307C65.5153 29.3252 66.8106 29.7725 68.339 29.6936C70.4892 29.6147 72.5616 28.799 74.2196 27.4045L74.3491 30.6408C73.4683 31.3249 72.4839 31.8512 71.4218 32.2195C70.3078 32.5879 69.1421 32.7721 67.9763 32.7984C66.1629 32.8773 64.6604 32.5616 63.5205 31.8249C62.3548 31.0881 61.3704 30.062 60.6968 28.8516C59.9456 27.4834 59.5311 25.9574 59.5052 24.405C59.4015 21.8527 60.0233 19.7478 61.3963 18.0902C62.7434 16.4325 64.5568 15.5642 66.8365 15.459C69.0385 15.3801 70.8 16.0642 72.173 17.5902C73.546 19.1163 74.2714 21.1686 74.375 23.7735L74.4009 24.1945ZM63.4687 22.6684C63.935 22.3 71.2663 22.1158 71.7844 22.3263C72.3026 22.5368 71.2145 19.9846 70.4892 19.3005C69.7638 18.6164 68.8053 18.2743 67.6395 18.327C66.5774 18.327 65.5412 18.748 64.7899 19.5373C64.0905 20.274 63.0024 23.0368 63.4687 22.6684Z" fill="#F0292A"/>
<path d="M102.534 20.4055C102.534 22.9841 102.068 25.089 101.135 26.6414C100.28 28.1148 99.1664 29.4041 97.8453 30.4566C96.0578 31.8774 93.5708 32.5878 90.3586 32.5878H76.9136V7.276H87.2499C88.597 7.24969 89.9182 7.35494 91.2393 7.51281C92.2497 7.64437 93.26 7.88117 94.2185 8.19691C94.9956 8.46003 95.7728 8.80208 96.4723 9.19675C97.0681 9.53881 97.6121 9.95979 98.1561 10.4071C99.011 11.1175 99.7623 11.9595 100.384 12.9067C101.058 13.9329 101.576 15.0643 101.912 16.2483C102.353 17.6165 102.534 19.011 102.534 20.4055ZM94.892 20.0898C94.892 18.0375 94.5034 16.4325 93.7263 15.2748C93.0786 14.2223 92.0942 13.4066 90.9285 12.9593C89.8664 12.5646 88.7524 12.3805 87.6126 12.3805H84.1412C85.3847 14.538 85.1256 25.5889 84.1412 27.3518H87.5867C89.3741 27.4044 91.1616 26.9045 92.6901 25.931C94.1667 24.9838 94.892 23.0367 94.892 20.0898Z" fill="#F0292A"/>
<path d="M122.974 23.8526C122.974 23.8526 114.037 25.7208 110.228 25.063C109.374 24.9051 111.213 27.0627 112.223 27.7205C113.233 28.3783 114.425 28.694 115.617 28.5887C117.793 28.4572 120.176 27.7205 122.741 26.3523L122.948 30.4043C121.886 31.0357 120.746 31.5357 119.58 31.9566C118.259 32.4303 116.549 32.746 114.477 32.8512C112.223 32.9828 110.306 32.6671 108.674 31.904C107.146 31.2199 105.85 30.0885 104.944 28.6414C104.063 27.1679 103.571 25.484 103.493 23.7474C103.363 22.0371 103.674 20.3269 104.4 18.8008C105.125 17.2747 106.317 16.0381 107.767 15.2224C109.296 14.3278 111.187 13.8016 113.441 13.67C114.917 13.5911 116.42 13.8279 117.793 14.4068C119.269 15.0119 120.513 16.0644 121.368 17.4063C122.352 18.8271 122.896 20.7216 123.026 23.0633L122.974 23.8526ZM118.078 21.353C118.751 21.5109 117.663 19.2218 117.067 18.564C116.446 17.8799 115.591 17.5642 114.503 17.6431C113.518 17.6694 112.586 18.1167 111.964 18.8797C111.342 19.6428 110.384 22.0371 111.135 21.774C111.99 21.432 116.757 21.0636 118.078 21.353Z" fill="#F0292A"/>
<path d="M143.336 31.6407C142.378 32.0091 141.523 32.3248 140.72 32.5616C139.787 32.8248 138.803 32.93 137.818 32.9037C136.756 32.9037 136.005 32.7195 135.59 32.3248C135.176 31.9565 134.865 31.4566 134.684 30.9303C133.984 31.5092 133.207 31.9828 132.378 32.3512C131.523 32.7195 130.409 32.9037 129.036 32.9037C127.715 32.9037 126.627 32.6669 125.824 32.1933C125.073 31.7986 124.477 31.1934 124.114 30.4304C123.777 29.7463 123.622 28.9833 123.622 28.2202C123.596 27.2204 123.881 26.2205 124.477 25.4049C125.099 24.6155 125.876 23.984 126.757 23.5631C128 22.9842 129.269 22.4843 130.565 22.0896L132.611 21.4318C133.078 21.2739 133.414 21.1687 133.647 21.0634C133.881 20.9582 134.14 20.853 134.373 20.7477C134.373 19.8531 134.192 19.1427 133.829 18.6428C133.466 18.1429 132.689 17.8797 131.497 17.8797C130.124 17.8797 128.777 18.1955 127.56 18.827C126.342 19.4584 125.228 20.3004 124.244 21.2739V16.1958C125.047 15.6169 125.928 15.117 126.86 14.7486C127.793 14.3803 128.777 14.0909 129.788 13.9067C130.798 13.7225 131.834 13.6436 132.87 13.6436C135.513 13.6436 137.507 14.1698 138.855 15.1959C140.202 16.2221 140.849 17.6692 140.849 19.4847V26.6415C140.823 27.1678 140.901 27.6677 141.031 28.1676C141.108 28.4833 141.393 28.6938 141.73 28.6675C142.3 28.6149 142.87 28.4307 143.388 28.1413L143.336 31.6407ZM134.321 28.0624V23.6946C133.155 24.1419 132.015 24.7208 130.979 25.4049C130.306 25.8522 129.891 26.6152 129.917 27.4572C129.891 27.9834 130.073 28.5097 130.435 28.878C130.772 29.1938 131.212 29.3779 131.653 29.3779C132.119 29.3779 132.559 29.2464 132.974 29.0096C133.44 28.7201 133.907 28.4044 134.321 28.0624Z" fill="#F0292A"/>
<path d="M150.329 32.5882H143.853V7.27637H150.329V32.5882Z" fill="#F0292A"/>
<rect x="162.356" width="98.6963" height="40" rx="7.32331" fill="#333333"/>
<path d="M192.056 10.688V29.1081H189.083V17.2102C189.083 16.7346 189.109 16.2208 189.159 15.6688L183.678 26.1272C183.419 26.6283 183.021 26.8788 182.486 26.8788H182.01C181.475 26.8788 181.077 26.6283 180.818 26.1272L175.275 15.6306C175.3 15.9108 175.321 16.1868 175.337 16.4586C175.354 16.7304 175.362 16.9809 175.362 17.2102V29.1081H172.39V10.688H174.936C175.087 10.688 175.216 10.6922 175.325 10.7007C175.434 10.7092 175.53 10.7305 175.613 10.7644C175.705 10.7984 175.785 10.8536 175.852 10.93C175.927 11.0065 175.998 11.1084 176.065 11.2357L181.496 21.4649C181.638 21.7366 181.767 22.0169 181.884 22.3056C182.01 22.5944 182.131 22.8916 182.248 23.1973C182.365 22.8831 182.486 22.5816 182.612 22.2929C182.737 21.9957 182.871 21.7112 183.013 21.4394L188.369 11.2357C188.435 11.1084 188.507 11.0065 188.582 10.93C188.657 10.8536 188.736 10.7984 188.82 10.7644C188.912 10.7305 189.012 10.7092 189.121 10.7007C189.23 10.6922 189.359 10.688 189.51 10.688H192.056Z" fill="white"/>
<path d="M200.915 15.8344C201.869 15.8344 202.734 15.9915 203.512 16.3057C204.298 16.62 204.966 17.0658 205.518 17.6433C206.078 18.2208 206.509 18.9256 206.81 19.7579C207.111 20.5902 207.262 21.5201 207.262 22.5477C207.262 23.5837 207.111 24.5179 206.81 25.3502C206.509 26.1824 206.078 26.8915 205.518 27.4775C204.966 28.0635 204.298 28.5136 203.512 28.8278C202.734 29.142 201.869 29.2992 200.915 29.2992C199.954 29.2992 199.08 29.142 198.294 28.8278C197.508 28.5136 196.835 28.0635 196.275 27.4775C195.723 26.8915 195.292 26.1824 194.983 25.3502C194.682 24.5179 194.531 23.5837 194.531 22.5477C194.531 21.5201 194.682 20.5902 194.983 19.7579C195.292 18.9256 195.723 18.2208 196.275 17.6433C196.835 17.0658 197.508 16.62 198.294 16.3057C199.08 15.9915 199.954 15.8344 200.915 15.8344ZM200.915 26.8788C201.986 26.8788 202.776 26.5136 203.286 25.7833C203.804 25.0529 204.063 23.9829 204.063 22.5731C204.063 21.1634 203.804 20.0891 203.286 19.3503C202.776 18.6114 201.986 18.242 200.915 18.242C199.828 18.242 199.021 18.6157 198.495 19.363C197.976 20.1018 197.717 21.1719 197.717 22.5731C197.717 23.9744 197.976 25.0444 198.495 25.7833C199.021 26.5136 199.828 26.8788 200.915 26.8788Z" fill="white"/>
<path d="M213.669 29.3119C212.549 29.3119 211.688 28.9934 211.086 28.3565C210.492 27.7111 210.195 26.8236 210.195 25.6941V18.3949H208.878C208.711 18.3949 208.569 18.3397 208.452 18.2293C208.335 18.1189 208.276 17.9533 208.276 17.7325V16.4841L210.346 16.1401L210.998 12.5733C211.04 12.4035 211.119 12.2718 211.236 12.1784C211.353 12.085 211.504 12.0383 211.688 12.0383H213.293V16.1529H216.73V18.3949H213.293V25.4776C213.293 25.8852 213.389 26.2037 213.582 26.433C213.782 26.6623 214.054 26.7769 214.397 26.7769C214.589 26.7769 214.748 26.7557 214.873 26.7132C215.007 26.6623 215.12 26.6113 215.212 26.5603C215.312 26.5094 215.4 26.4627 215.475 26.4202C215.551 26.3693 215.626 26.3438 215.701 26.3438C215.793 26.3438 215.868 26.3693 215.927 26.4202C215.986 26.4627 216.048 26.5306 216.115 26.624L217.043 28.1527C216.592 28.5348 216.073 28.8236 215.488 29.0189C214.903 29.2142 214.297 29.3119 213.669 29.3119Z" fill="white"/>
<path d="M224.309 15.8344C225.262 15.8344 226.128 15.9915 226.905 16.3057C227.691 16.62 228.36 17.0658 228.912 17.6433C229.472 18.2208 229.903 18.9256 230.204 19.7579C230.505 20.5902 230.655 21.5201 230.655 22.5477C230.655 23.5837 230.505 24.5179 230.204 25.3502C229.903 26.1824 229.472 26.8915 228.912 27.4775C228.36 28.0635 227.691 28.5136 226.905 28.8278C226.128 29.142 225.262 29.2992 224.309 29.2992C223.348 29.2992 222.474 29.142 221.688 28.8278C220.902 28.5136 220.229 28.0635 219.669 27.4775C219.117 26.8915 218.686 26.1824 218.377 25.3502C218.076 24.5179 217.925 23.5837 217.925 22.5477C217.925 21.5201 218.076 20.5902 218.377 19.7579C218.686 18.9256 219.117 18.2208 219.669 17.6433C220.229 17.0658 220.902 16.62 221.688 16.3057C222.474 15.9915 223.348 15.8344 224.309 15.8344ZM224.309 26.8788C225.379 26.8788 226.17 26.5136 226.68 25.7833C227.198 25.0529 227.457 23.9829 227.457 22.5731C227.457 21.1634 227.198 20.0891 226.68 19.3503C226.17 18.6114 225.379 18.242 224.309 18.242C223.222 18.242 222.415 18.6157 221.889 19.363C221.37 20.1018 221.111 21.1719 221.111 22.5731C221.111 23.9744 221.37 25.0444 221.889 25.7833C222.415 26.5136 223.222 26.8788 224.309 26.8788Z" fill="white"/>
<path d="M235.941 18.3057C236.342 17.5244 236.819 16.9129 237.371 16.4713C237.923 16.0212 238.575 15.7962 239.327 15.7962C239.921 15.7962 240.398 15.9278 240.757 16.1911L240.557 18.5477C240.515 18.7006 240.452 18.811 240.368 18.8789C240.293 18.9384 240.189 18.9681 240.055 18.9681C239.93 18.9681 239.741 18.9469 239.491 18.9044C239.248 18.862 239.01 18.8407 238.776 18.8407C238.433 18.8407 238.128 18.8917 237.86 18.9936C237.593 19.0955 237.35 19.2441 237.133 19.4394C236.924 19.6263 236.735 19.8556 236.568 20.1273C236.409 20.3991 236.259 20.7091 236.117 21.0572V29.1081H233.019V16.0382H234.837C235.155 16.0382 235.377 16.0977 235.502 16.2166C235.628 16.327 235.711 16.5308 235.753 16.828L235.941 18.3057Z" fill="white"/>
<path d="M250.179 18.5859C250.095 18.7218 250.007 18.8195 249.915 18.8789C249.823 18.9299 249.706 18.9554 249.564 18.9554C249.414 18.9554 249.251 18.9129 249.075 18.828C248.908 18.7431 248.711 18.6496 248.486 18.5477C248.26 18.4373 248.001 18.3397 247.708 18.2547C247.424 18.1698 247.085 18.1274 246.692 18.1274C246.082 18.1274 245.601 18.259 245.25 18.5223C244.907 18.7855 244.735 19.1295 244.735 19.5541C244.735 19.8343 244.823 20.0721 244.999 20.2675C245.183 20.4543 245.421 20.6199 245.714 20.7643C246.015 20.9086 246.353 21.0403 246.73 21.1592C247.106 21.2696 247.486 21.3927 247.871 21.5286C248.264 21.6645 248.649 21.8216 249.025 21.9999C249.401 22.1698 249.736 22.3906 250.028 22.6623C250.329 22.9256 250.568 23.244 250.743 23.6177C250.927 23.9914 251.019 24.4415 251.019 24.968C251.019 25.5965 250.906 26.1782 250.68 26.7132C250.463 27.2397 250.137 27.6983 249.702 28.089C249.267 28.4711 248.728 28.7726 248.084 28.9934C247.449 29.2057 246.713 29.3119 245.877 29.3119C245.434 29.3119 244.999 29.2694 244.572 29.1845C244.154 29.1081 243.749 28.9977 243.356 28.8533C242.971 28.7089 242.612 28.5391 242.277 28.3438C241.951 28.1484 241.663 27.9361 241.412 27.7068L242.127 26.5094C242.219 26.365 242.327 26.2546 242.453 26.1782C242.578 26.1018 242.737 26.0635 242.929 26.0635C243.122 26.0635 243.302 26.1187 243.469 26.2291C243.644 26.3395 243.845 26.4584 244.071 26.5858C244.297 26.7132 244.56 26.8321 244.861 26.9425C245.17 27.0529 245.559 27.1081 246.027 27.1081C246.395 27.1081 246.709 27.0656 246.968 26.9807C247.236 26.8873 247.453 26.7684 247.62 26.624C247.796 26.4797 247.921 26.3141 247.996 26.1272C248.08 25.9319 248.122 25.7323 248.122 25.5285C248.122 25.2228 248.03 24.9723 247.846 24.7769C247.67 24.5816 247.432 24.4118 247.131 24.2674C246.838 24.123 246.5 23.9956 246.115 23.8852C245.739 23.7663 245.35 23.6389 244.949 23.5031C244.556 23.3672 244.167 23.2101 243.782 23.0317C243.406 22.8449 243.067 22.6114 242.766 22.3311C242.474 22.0509 242.235 21.7069 242.051 21.2993C241.876 20.8916 241.788 20.3991 241.788 19.8216C241.788 19.2866 241.893 18.777 242.102 18.293C242.311 17.8089 242.616 17.3885 243.017 17.0318C243.427 16.6667 243.933 16.3779 244.535 16.1656C245.145 15.9448 245.848 15.8344 246.642 15.8344C247.528 15.8344 248.335 15.983 249.062 16.2803C249.79 16.5775 250.396 16.9681 250.881 17.4522L250.179 18.5859Z" fill="white"/>
</g>
<defs>
<clipPath id="clip0_379_153304">
<path d="M0 4.60913C0 2.06358 2.06358 0 4.60914 0H256.444C258.989 0 261.053 2.06358 261.053 4.60914V35.3909C261.053 37.9364 258.989 40 256.444 40H4.60912C2.06357 40 0 37.9364 0 35.3909V4.60913Z" fill="white"/>
</clipPath>
</defs>
</svg>
