<svg width="200" height="54" viewBox="0 0 200 54" fill="none" xmlns="http://www.w3.org/2000/svg">
<path d="M5.71457 42.524V43.3782H1.99498V46.0868H5.17394V46.9411H1.99498V50.2714H0.940735V42.524H5.71457Z" fill="white"/>
<path d="M8.75026 44.7082C9.15033 44.7082 9.51076 44.7749 9.83154 44.9083C10.1559 45.0416 10.4298 45.2308 10.6533 45.4759C10.8804 45.721 11.0534 46.0184 11.1723 46.368C11.2949 46.714 11.3561 47.1014 11.3561 47.5304C11.3561 47.9629 11.2949 48.3521 11.1723 48.6981C11.0534 49.0441 10.8804 49.3397 10.6533 49.5848C10.4298 49.8299 10.1559 50.0191 9.83154 50.1524C9.51076 50.2822 9.15033 50.3471 8.75026 50.3471C8.35019 50.3471 7.98796 50.2822 7.66358 50.1524C7.3428 50.0191 7.06887 49.8299 6.84181 49.5848C6.61474 49.3397 6.43993 49.0441 6.31739 48.6981C6.19484 48.3521 6.13357 47.9629 6.13357 47.5304C6.13357 47.1014 6.19484 46.714 6.31739 46.368C6.43993 46.0184 6.61474 45.721 6.84181 45.4759C7.06887 45.2308 7.3428 45.0416 7.66358 44.9083C7.98796 44.7749 8.35019 44.7082 8.75026 44.7082ZM8.75026 49.5956C9.2909 49.5956 9.69458 49.4154 9.96129 49.055C10.228 48.6909 10.3614 48.1845 10.3614 47.5358C10.3614 46.8834 10.228 46.3752 9.96129 46.0112C9.69458 45.6471 9.2909 45.4651 8.75026 45.4651C8.47634 45.4651 8.23846 45.512 8.03662 45.6057C7.83478 45.6994 7.66538 45.8345 7.52842 46.0112C7.39506 46.1878 7.29414 46.4058 7.22566 46.6653C7.16078 46.9212 7.12835 47.2114 7.12835 47.5358C7.12835 47.8601 7.16078 48.1503 7.22566 48.4062C7.29414 48.6621 7.39506 48.8783 7.52842 49.055C7.66538 49.228 7.83478 49.3613 8.03662 49.455C8.23846 49.5487 8.47634 49.5956 8.75026 49.5956Z" fill="white"/>
<path d="M12.5419 50.2714V44.7947H13.0934C13.1979 44.7947 13.27 44.8145 13.3096 44.8542C13.3493 44.8938 13.3763 44.9623 13.3907 45.0596L13.4556 45.9138C13.643 45.5318 13.8737 45.2344 14.1476 45.0218C14.4251 44.8055 14.7495 44.6974 15.1208 44.6974C15.2721 44.6974 15.4091 44.7154 15.5316 44.7515C15.6542 44.7839 15.7677 44.8308 15.8722 44.892L15.7479 45.6111C15.7227 45.7012 15.6668 45.7462 15.5803 45.7462C15.5298 45.7462 15.4524 45.73 15.3478 45.6976C15.2433 45.6615 15.0973 45.6435 14.9099 45.6435C14.5747 45.6435 14.2936 45.7408 14.0665 45.9355C13.8431 46.1301 13.6556 46.413 13.5042 46.7843V50.2714H12.5419Z" fill="white"/>
<path d="M23.016 50.2714H22.5889C22.4952 50.2714 22.4195 50.257 22.3619 50.2281C22.3042 50.1993 22.2663 50.138 22.2483 50.0443L22.1402 49.5361C21.996 49.6659 21.8555 49.783 21.7185 49.8875C21.5815 49.9885 21.4374 50.075 21.286 50.147C21.1346 50.2155 20.9724 50.2678 20.7994 50.3038C20.63 50.3399 20.4408 50.3579 20.2317 50.3579C20.0191 50.3579 19.8191 50.3291 19.6316 50.2714C19.4478 50.2101 19.2874 50.12 19.1505 50.0011C19.0135 49.8821 18.9036 49.7326 18.8207 49.5523C18.7414 49.3685 18.7017 49.1523 18.7017 48.9036C18.7017 48.6873 18.7612 48.4801 18.8801 48.2818C18.9991 48.08 19.1901 47.9016 19.4532 47.7466C19.7199 47.5916 20.0677 47.4655 20.4967 47.3682C20.9256 47.2672 21.45 47.2096 22.0699 47.1952V46.7681C22.0699 46.3427 21.978 46.022 21.7942 45.8057C21.614 45.5859 21.3455 45.4759 20.9886 45.4759C20.7544 45.4759 20.5561 45.5066 20.3939 45.5678C20.2353 45.6255 20.0966 45.6922 19.9776 45.7679C19.8623 45.84 19.7614 45.9066 19.6749 45.9679C19.592 46.0256 19.5091 46.0544 19.4262 46.0544C19.3613 46.0544 19.3036 46.0382 19.2532 46.0058C19.2063 45.9697 19.1685 45.9265 19.1396 45.876L18.9666 45.5678C19.2694 45.2759 19.5956 45.0578 19.9452 44.9137C20.2948 44.7695 20.6823 44.6974 21.1076 44.6974C21.4139 44.6974 21.6861 44.7479 21.9239 44.8488C22.1618 44.9497 22.3619 45.0903 22.524 45.2705C22.6862 45.4507 22.8088 45.6688 22.8917 45.9247C22.9746 46.1806 23.016 46.4617 23.016 46.7681V50.2714ZM20.5183 49.6821C20.6877 49.6821 20.8427 49.6659 20.9832 49.6334C21.1238 49.5974 21.2553 49.5487 21.3779 49.4875C21.504 49.4226 21.623 49.3451 21.7347 49.255C21.85 49.1649 21.9618 49.0622 22.0699 48.9468V47.8061C21.6266 47.8205 21.2499 47.8565 20.94 47.9142C20.63 47.9683 20.3777 48.0404 20.1831 48.1305C19.9885 48.2206 19.8461 48.3269 19.756 48.4494C19.6695 48.572 19.6262 48.7089 19.6262 48.8603C19.6262 49.0045 19.6497 49.1288 19.6965 49.2334C19.7434 49.3379 19.8064 49.4244 19.8857 49.4929C19.965 49.5577 20.0587 49.6064 20.1669 49.6388C20.275 49.6677 20.3921 49.6821 20.5183 49.6821Z" fill="white"/>
<path d="M25.5444 42.3078V50.2714H24.5821V42.3078H25.5444Z" fill="white"/>
<path d="M28.311 42.3078V50.2714H27.3487V42.3078H28.311Z" fill="white"/>
<path d="M34.3144 44.7082C34.7145 44.7082 35.0749 44.7749 35.3957 44.9083C35.7201 45.0416 35.994 45.2308 36.2175 45.4759C36.4446 45.721 36.6176 46.0184 36.7365 46.368C36.8591 46.714 36.9203 47.1014 36.9203 47.5304C36.9203 47.9629 36.8591 48.3521 36.7365 48.6981C36.6176 49.0441 36.4446 49.3397 36.2175 49.5848C35.994 49.8299 35.7201 50.0191 35.3957 50.1524C35.0749 50.2822 34.7145 50.3471 34.3144 50.3471C33.9144 50.3471 33.5521 50.2822 33.2278 50.1524C32.907 50.0191 32.6331 49.8299 32.406 49.5848C32.1789 49.3397 32.0041 49.0441 31.8816 48.6981C31.759 48.3521 31.6978 47.9629 31.6978 47.5304C31.6978 47.1014 31.759 46.714 31.8816 46.368C32.0041 46.0184 32.1789 45.721 32.406 45.4759C32.6331 45.2308 32.907 45.0416 33.2278 44.9083C33.5521 44.7749 33.9144 44.7082 34.3144 44.7082ZM34.3144 49.5956C34.8551 49.5956 35.2588 49.4154 35.5255 49.055C35.7922 48.6909 35.9256 48.1845 35.9256 47.5358C35.9256 46.8834 35.7922 46.3752 35.5255 46.0112C35.2588 45.6471 34.8551 45.4651 34.3144 45.4651C34.0405 45.4651 33.8026 45.512 33.6008 45.6057C33.399 45.6994 33.2296 45.8345 33.0926 46.0112C32.9592 46.1878 32.8583 46.4058 32.7898 46.6653C32.725 46.9212 32.6925 47.2114 32.6925 47.5358C32.6925 47.8601 32.725 48.1503 32.7898 48.4062C32.8583 48.6621 32.9592 48.8783 33.0926 49.055C33.2296 49.228 33.399 49.3613 33.6008 49.455C33.8026 49.5487 34.0405 49.5956 34.3144 49.5956Z" fill="white"/>
<path d="M38.3224 50.2714V45.6165L37.7168 45.5462C37.6411 45.5282 37.5781 45.5012 37.5276 45.4651C37.4808 45.4255 37.4573 45.3696 37.4573 45.2975V44.9028H38.3224V44.373C38.3224 44.0595 38.3656 43.7819 38.4521 43.5404C38.5422 43.2954 38.6684 43.0899 38.8306 42.9241C38.9964 42.7547 39.1946 42.6268 39.4253 42.5403C39.6559 42.4538 39.9154 42.4105 40.2038 42.4105C40.4489 42.4105 40.6759 42.4465 40.885 42.5186L40.8634 42.9998C40.8598 43.0719 40.8291 43.1151 40.7715 43.1296C40.7138 43.144 40.6327 43.1512 40.5282 43.1512H40.3606C40.1948 43.1512 40.0434 43.1728 39.9064 43.2161C39.7731 43.2593 39.6577 43.3296 39.5604 43.4269C39.4631 43.5242 39.3874 43.6522 39.3334 43.8108C39.2829 43.9693 39.2577 44.1658 39.2577 44.4001V44.9028H40.8417V45.6003H39.2901V50.2714H38.3224Z" fill="white"/>
<path d="M45.2347 50.2714H44.1858V42.524H45.2347V50.2714Z" fill="white"/>
<path d="M47.1555 50.2714V44.7947H47.7069C47.8114 44.7947 47.8835 44.8145 47.9232 44.8542C47.9628 44.8938 47.9898 44.9623 48.0043 45.0596L48.0691 45.9138C48.2566 45.5318 48.4872 45.2344 48.7612 45.0218C49.0387 44.8055 49.3631 44.6974 49.7343 44.6974C49.8857 44.6974 50.0226 44.7154 50.1452 44.7515C50.2677 44.7839 50.3813 44.8308 50.4858 44.892L50.3615 45.6111C50.3362 45.7012 50.2804 45.7462 50.1939 45.7462C50.1434 45.7462 50.0659 45.73 49.9614 45.6976C49.8569 45.6615 49.7109 45.6435 49.5235 45.6435C49.1883 45.6435 48.9071 45.7408 48.6801 45.9355C48.4566 46.1301 48.2692 46.413 48.1178 46.7843V50.2714H47.1555Z" fill="white"/>
<path d="M53.6844 44.7082C54.0124 44.7082 54.3152 44.7641 54.5927 44.8758C54.8702 44.9839 55.1099 45.1425 55.3118 45.3516C55.5136 45.557 55.6704 45.8129 55.7821 46.1193C55.8975 46.422 55.9551 46.7681 55.9551 47.1573C55.9551 47.3087 55.9389 47.4096 55.9065 47.4601C55.874 47.5105 55.8128 47.5358 55.7226 47.5358H52.0787C52.086 47.8818 52.1328 48.1827 52.2193 48.4386C52.3058 48.6945 52.4247 48.909 52.5761 49.082C52.7275 49.2514 52.9077 49.3793 53.1168 49.4658C53.3258 49.5487 53.5601 49.5902 53.8196 49.5902C54.0611 49.5902 54.2683 49.5632 54.4413 49.5091C54.6179 49.4514 54.7693 49.3901 54.8955 49.3253C55.0216 49.2604 55.1261 49.2009 55.209 49.1469C55.2955 49.0892 55.3694 49.0604 55.4307 49.0604C55.51 49.0604 55.5713 49.091 55.6145 49.1523L55.8848 49.5037C55.7659 49.6479 55.6235 49.774 55.4577 49.8821C55.2919 49.9867 55.1135 50.0732 54.9225 50.1416C54.7351 50.2101 54.5405 50.2606 54.3386 50.293C54.1368 50.3291 53.9367 50.3471 53.7385 50.3471C53.3601 50.3471 53.0104 50.284 52.6897 50.1579C52.3725 50.0281 52.0968 49.8407 51.8625 49.5956C51.6318 49.3469 51.4516 49.0405 51.3218 48.6765C51.1921 48.3125 51.1272 47.8944 51.1272 47.4222C51.1272 47.0402 51.1849 46.6834 51.3002 46.3518C51.4192 46.0202 51.5886 45.7336 51.8084 45.4921C52.0283 45.2471 52.2968 45.056 52.614 44.9191C52.9311 44.7785 53.288 44.7082 53.6844 44.7082ZM53.7061 45.4165C53.2411 45.4165 52.8753 45.5516 52.6086 45.8219C52.3419 46.0886 52.1761 46.4599 52.1112 46.9356H55.0901C55.0901 46.7122 55.0595 46.5085 54.9982 46.3247C54.9369 46.1373 54.8468 45.9769 54.7279 45.8436C54.6089 45.7066 54.463 45.6021 54.29 45.53C54.1206 45.4543 53.9259 45.4165 53.7061 45.4165Z" fill="white"/>
<path d="M58.2573 42.3078V50.2714H57.295V42.3078H58.2573Z" fill="white"/>
<path d="M63.9757 50.2714H63.5486C63.4549 50.2714 63.3792 50.257 63.3216 50.2281C63.2639 50.1993 63.2261 50.138 63.208 50.0443L63.0999 49.5361C62.9557 49.6659 62.8152 49.783 62.6782 49.8875C62.5412 49.9885 62.3971 50.075 62.2457 50.147C62.0943 50.2155 61.9321 50.2678 61.7591 50.3038C61.5897 50.3399 61.4005 50.3579 61.1915 50.3579C60.9788 50.3579 60.7788 50.3291 60.5913 50.2714C60.4075 50.2101 60.2471 50.12 60.1102 50.0011C59.9732 49.8821 59.8633 49.7326 59.7804 49.5523C59.7011 49.3685 59.6614 49.1523 59.6614 48.9036C59.6614 48.6873 59.7209 48.4801 59.8399 48.2818C59.9588 48.08 60.1498 47.9016 60.4129 47.7466C60.6797 47.5916 61.0275 47.4655 61.4564 47.3682C61.8853 47.2672 62.4097 47.2096 63.0296 47.1952V46.7681C63.0296 46.3427 62.9377 46.022 62.7539 45.8057C62.5737 45.5859 62.3052 45.4759 61.9483 45.4759C61.7141 45.4759 61.5158 45.5066 61.3536 45.5678C61.1951 45.6255 61.0563 45.6922 60.9374 45.7679C60.822 45.84 60.7211 45.9066 60.6346 45.9679C60.5517 46.0256 60.4688 46.0544 60.3859 46.0544C60.321 46.0544 60.2634 46.0382 60.2129 46.0058C60.166 45.9697 60.1282 45.9265 60.0994 45.876L59.9264 45.5678C60.2291 45.2759 60.5553 45.0578 60.9049 44.9137C61.2545 44.7695 61.642 44.6974 62.0673 44.6974C62.3737 44.6974 62.6458 44.7479 62.8837 44.8488C63.1215 44.9497 63.3216 45.0903 63.4838 45.2705C63.646 45.4507 63.7685 45.6688 63.8514 45.9247C63.9343 46.1806 63.9757 46.4617 63.9757 46.7681V50.2714ZM61.478 49.6821C61.6474 49.6821 61.8024 49.6659 61.9429 49.6334C62.0835 49.5974 62.2151 49.5487 62.3376 49.4875C62.4638 49.4226 62.5827 49.3451 62.6944 49.255C62.8098 49.1649 62.9215 49.0622 63.0296 48.9468V47.8061C62.5863 47.8205 62.2097 47.8565 61.8997 47.9142C61.5897 47.9683 61.3374 48.0404 61.1428 48.1305C60.9482 48.2206 60.8058 48.3269 60.7157 48.4494C60.6292 48.572 60.5859 48.7089 60.5859 48.8603C60.5859 49.0045 60.6094 49.1288 60.6562 49.2334C60.7031 49.3379 60.7662 49.4244 60.8454 49.4929C60.9247 49.5577 61.0185 49.6064 61.1266 49.6388C61.2347 49.6677 61.3518 49.6821 61.478 49.6821Z" fill="white"/>
<path d="M65.4337 50.2714V44.7947H66.0068C66.1437 44.7947 66.2302 44.8614 66.2663 44.9948L66.342 45.5895C66.5798 45.3263 66.8448 45.1137 67.1367 44.9515C67.4323 44.7893 67.7729 44.7082 68.1585 44.7082C68.4577 44.7082 68.7208 44.7587 68.9479 44.8596C69.1785 44.9569 69.3696 45.0975 69.5209 45.2813C69.6759 45.4615 69.7931 45.6796 69.8723 45.9355C69.9516 46.1914 69.9913 46.4743 69.9913 46.7843V50.2714H69.029V46.7843C69.029 46.3698 68.9334 46.049 68.7424 45.8219C68.555 45.5913 68.2666 45.4759 67.8774 45.4759C67.5927 45.4759 67.3259 45.5444 67.0772 45.6814C66.8322 45.8183 66.6051 46.0039 66.396 46.2382V50.2714H65.4337Z" fill="white"/>
<path d="M75.2967 50.2714C75.1598 50.2714 75.0733 50.2047 75.0372 50.0714L74.9507 49.4064C74.7164 49.6911 74.4479 49.92 74.1452 50.093C73.846 50.2624 73.5018 50.3471 73.1125 50.3471C72.799 50.3471 72.5142 50.2876 72.2583 50.1687C72.0024 50.0461 71.7844 49.8677 71.6042 49.6334C71.424 49.3992 71.2852 49.1072 71.1879 48.7576C71.0906 48.408 71.0419 48.0061 71.0419 47.552C71.0419 47.1483 71.096 46.7735 71.2041 46.4274C71.3122 46.0778 71.4672 45.7751 71.669 45.5192C71.8745 45.2633 72.1232 45.0632 72.4151 44.9191C72.7071 44.7713 73.0387 44.6974 73.4099 44.6974C73.7451 44.6974 74.0316 44.7551 74.2695 44.8704C74.5074 44.9821 74.72 45.1407 74.9075 45.3462V42.3078H75.8698V50.2714H75.2967ZM73.4315 49.5686C73.7451 49.5686 74.019 49.4965 74.2533 49.3523C74.4912 49.2081 74.7092 49.0045 74.9075 48.7414V46.0923C74.7309 45.8544 74.5362 45.6886 74.3236 45.5949C74.1145 45.4976 73.882 45.4489 73.6261 45.4489C73.1143 45.4489 72.7215 45.6309 72.4476 45.9949C72.1736 46.359 72.0367 46.878 72.0367 47.552C72.0367 47.9088 72.0673 48.2152 72.1286 48.4711C72.1898 48.7234 72.28 48.9324 72.3989 49.0982C72.5178 49.2604 72.6638 49.3793 72.8368 49.455C73.0098 49.5307 73.2081 49.5686 73.4315 49.5686Z" fill="white"/>
<path d="M78.3523 42.524V44.0919L78.2658 44.9299C78.255 45.0452 78.2244 45.1353 78.1739 45.2002C78.1235 45.2615 78.0424 45.2921 77.9306 45.2921C77.8369 45.2921 77.7631 45.2615 77.709 45.2002C77.6585 45.1353 77.6225 45.0452 77.6009 44.9299L77.5144 44.0919V42.524H78.3523Z" fill="white"/>
<path d="M83.1096 45.6976C83.0664 45.7769 82.9997 45.8165 82.9096 45.8165C82.8555 45.8165 82.7943 45.7967 82.7258 45.7571C82.6573 45.7174 82.5726 45.6742 82.4717 45.6273C82.3744 45.5768 82.2572 45.5318 82.1203 45.4921C81.9833 45.4489 81.8211 45.4273 81.6337 45.4273C81.4715 45.4273 81.3255 45.4489 81.1958 45.4921C81.066 45.5318 80.9543 45.5877 80.8606 45.6597C80.7705 45.7318 80.7002 45.8165 80.6497 45.9138C80.6029 46.0076 80.5794 46.1103 80.5794 46.222C80.5794 46.3626 80.6191 46.4797 80.6984 46.5734C80.7813 46.6671 80.8894 46.7482 81.0228 46.8167C81.1561 46.8852 81.3075 46.9465 81.4769 47.0005C81.6463 47.051 81.8193 47.1069 81.9959 47.1681C82.1761 47.2258 82.3509 47.2907 82.5203 47.3628C82.6897 47.4348 82.8411 47.5249 82.9745 47.6331C83.1078 47.7412 83.2141 47.8746 83.2934 48.0331C83.3763 48.1881 83.4178 48.3756 83.4178 48.5954C83.4178 48.8477 83.3727 49.082 83.2826 49.2982C83.1925 49.5109 83.0592 49.6965 82.8826 49.8551C82.706 50.0101 82.4897 50.1326 82.2338 50.2227C81.9779 50.3128 81.6823 50.3579 81.3471 50.3579C80.9651 50.3579 80.6191 50.2966 80.3091 50.1741C79.9992 50.0479 79.736 49.8875 79.5198 49.6929L79.7469 49.3253C79.7757 49.2784 79.8099 49.2424 79.8496 49.2171C79.8892 49.1919 79.9415 49.1793 80.0064 49.1793C80.0712 49.1793 80.1397 49.2045 80.2118 49.255C80.2839 49.3054 80.3704 49.3613 80.4713 49.4226C80.5758 49.4839 80.7002 49.5397 80.8443 49.5902C80.9921 49.6406 81.1759 49.6659 81.3958 49.6659C81.5832 49.6659 81.7472 49.6424 81.8878 49.5956C82.0284 49.5451 82.1455 49.4785 82.2392 49.3956C82.3329 49.3127 82.4014 49.2171 82.4446 49.109C82.4915 49.0009 82.5149 48.8856 82.5149 48.763C82.5149 48.6116 82.4735 48.4873 82.3906 48.39C82.3113 48.289 82.205 48.2043 82.0716 48.1359C81.9382 48.0638 81.7851 48.0025 81.6121 47.952C81.4427 47.898 81.2679 47.8421 81.0876 47.7845C80.911 47.7268 80.7362 47.6619 80.5632 47.5898C80.3938 47.5141 80.2424 47.4204 80.1091 47.3087C79.9757 47.197 79.8676 47.06 79.7847 46.8978C79.7054 46.732 79.6658 46.532 79.6658 46.2977C79.6658 46.0886 79.709 45.8886 79.7955 45.6976C79.882 45.503 80.0082 45.3336 80.174 45.1894C80.3398 45.0416 80.5434 44.9245 80.7849 44.838C81.0264 44.7515 81.3021 44.7082 81.6121 44.7082C81.9725 44.7082 82.2951 44.7659 82.5798 44.8812C82.8681 44.993 83.1168 45.1479 83.3259 45.3462L83.1096 45.6976Z" fill="white"/>
<path d="M92.181 42.524V43.4053H89.6779V50.2714H88.629V43.4053H86.1151V42.524H92.181Z" fill="white"/>
<path d="M92.265 50.2714V44.7947H92.8165C92.921 44.7947 92.9931 44.8145 93.0327 44.8542C93.0724 44.8938 93.0994 44.9623 93.1138 45.0596L93.1787 45.9138C93.3661 45.5318 93.5968 45.2344 93.8707 45.0218C94.1482 44.8055 94.4726 44.6974 94.8439 44.6974C94.9952 44.6974 95.1322 44.7154 95.2547 44.7515C95.3773 44.7839 95.4908 44.8308 95.5953 44.892L95.471 45.6111C95.4458 45.7012 95.3899 45.7462 95.3034 45.7462C95.2529 45.7462 95.1754 45.73 95.0709 45.6976C94.9664 45.6615 94.8204 45.6435 94.633 45.6435C94.2978 45.6435 94.0167 45.7408 93.7896 45.9355C93.5661 46.1301 93.3787 46.413 93.2273 46.7843V50.2714H92.265Z" fill="white"/>
<path d="M97.4586 44.7947V48.2872C97.4586 48.7017 97.5541 49.0225 97.7451 49.2496C97.9362 49.4767 98.2245 49.5902 98.6102 49.5902C98.8913 49.5902 99.1562 49.5235 99.4049 49.3901C99.6536 49.2568 99.8825 49.0712 100.092 48.8333V44.7947H101.054V50.2714H100.481C100.344 50.2714 100.257 50.2047 100.221 50.0714L100.146 49.4821C99.9077 49.7452 99.641 49.9578 99.3454 50.12C99.0499 50.2786 98.7111 50.3579 98.329 50.3579C98.0299 50.3579 97.765 50.3092 97.5343 50.2119C97.3072 50.111 97.1162 49.9704 96.9612 49.7902C96.8062 49.61 96.6891 49.392 96.6098 49.136C96.5341 48.8801 96.4963 48.5972 96.4963 48.2872V44.7947H97.4586Z" fill="white"/>
<path d="M105.77 45.6976C105.727 45.7769 105.66 45.8165 105.57 45.8165C105.516 45.8165 105.455 45.7967 105.386 45.7571C105.318 45.7174 105.233 45.6742 105.132 45.6273C105.035 45.5768 104.918 45.5318 104.781 45.4921C104.644 45.4489 104.481 45.4273 104.294 45.4273C104.132 45.4273 103.986 45.4489 103.856 45.4921C103.726 45.5318 103.615 45.5877 103.521 45.6597C103.431 45.7318 103.361 45.8165 103.31 45.9138C103.263 46.0076 103.24 46.1103 103.24 46.222C103.24 46.3626 103.279 46.4797 103.359 46.5734C103.442 46.6671 103.55 46.7482 103.683 46.8167C103.816 46.8852 103.968 46.9465 104.137 47.0005C104.307 47.051 104.48 47.1069 104.656 47.1681C104.836 47.2258 105.011 47.2907 105.181 47.3628C105.35 47.4348 105.501 47.5249 105.635 47.6331C105.768 47.7412 105.875 47.8746 105.954 48.0331C106.037 48.1881 106.078 48.3756 106.078 48.5954C106.078 48.8477 106.033 49.082 105.943 49.2982C105.853 49.5109 105.72 49.6965 105.543 49.8551C105.366 50.0101 105.15 50.1326 104.894 50.2227C104.638 50.3128 104.343 50.3579 104.008 50.3579C103.625 50.3579 103.279 50.2966 102.969 50.1741C102.66 50.0479 102.396 49.8875 102.18 49.6929L102.407 49.3253C102.436 49.2784 102.47 49.2424 102.51 49.2171C102.55 49.1919 102.602 49.1793 102.667 49.1793C102.732 49.1793 102.8 49.2045 102.872 49.255C102.944 49.3054 103.031 49.3613 103.132 49.4226C103.236 49.4839 103.361 49.5397 103.505 49.5902C103.652 49.6406 103.836 49.6659 104.056 49.6659C104.244 49.6659 104.408 49.6424 104.548 49.5956C104.689 49.5451 104.806 49.4785 104.9 49.3956C104.993 49.3127 105.062 49.2171 105.105 49.109C105.152 49.0009 105.175 48.8856 105.175 48.763C105.175 48.6116 105.134 48.4873 105.051 48.39C104.972 48.289 104.865 48.2043 104.732 48.1359C104.599 48.0638 104.445 48.0025 104.272 47.952C104.103 47.898 103.928 47.8421 103.748 47.7845C103.571 47.7268 103.397 47.6619 103.224 47.5898C103.054 47.5141 102.903 47.4204 102.769 47.3087C102.636 47.197 102.528 47.06 102.445 46.8978C102.366 46.732 102.326 46.532 102.326 46.2977C102.326 46.0886 102.369 45.8886 102.456 45.6976C102.542 45.503 102.669 45.3336 102.834 45.1894C103 45.0416 103.204 44.9245 103.445 44.838C103.687 44.7515 103.962 44.7082 104.272 44.7082C104.633 44.7082 104.955 44.7659 105.24 44.8812C105.529 44.993 105.777 45.1479 105.986 45.3462L105.77 45.6976Z" fill="white"/>
<path d="M108.982 50.3579C108.55 50.3579 108.216 50.2371 107.982 49.9957C107.752 49.7542 107.636 49.4064 107.636 48.9522V45.6003H106.977C106.919 45.6003 106.87 45.5841 106.831 45.5516C106.791 45.5156 106.771 45.4615 106.771 45.3894V45.0056L107.669 44.892L107.89 43.1998C107.898 43.1458 107.921 43.1025 107.961 43.0701C108 43.034 108.051 43.016 108.112 43.016H108.599V44.9028H110.166V45.6003H108.599V48.8874C108.599 49.118 108.654 49.2892 108.766 49.401C108.878 49.5127 109.022 49.5686 109.199 49.5686C109.3 49.5686 109.386 49.5559 109.458 49.5307C109.534 49.5019 109.599 49.4712 109.653 49.4388C109.707 49.4064 109.752 49.3775 109.788 49.3523C109.828 49.3235 109.862 49.3091 109.891 49.3091C109.941 49.3091 109.986 49.3397 110.026 49.401L110.307 49.8605C110.141 50.0155 109.941 50.138 109.707 50.2281C109.473 50.3146 109.231 50.3579 108.982 50.3579Z" fill="white"/>
<path d="M113.524 44.7082C113.852 44.7082 114.155 44.7641 114.433 44.8758C114.71 44.9839 114.95 45.1425 115.152 45.3516C115.353 45.557 115.51 45.8129 115.622 46.1193C115.737 46.422 115.795 46.7681 115.795 47.1573C115.795 47.3087 115.779 47.4096 115.746 47.4601C115.714 47.5105 115.653 47.5358 115.562 47.5358H111.919C111.926 47.8818 111.973 48.1827 112.059 48.4386C112.146 48.6945 112.265 48.909 112.416 49.082C112.567 49.2514 112.748 49.3793 112.957 49.4658C113.166 49.5487 113.4 49.5902 113.659 49.5902C113.901 49.5902 114.108 49.5632 114.281 49.5091C114.458 49.4514 114.609 49.3901 114.735 49.3253C114.861 49.2604 114.966 49.2009 115.049 49.1469C115.135 49.0892 115.209 49.0604 115.271 49.0604C115.35 49.0604 115.411 49.091 115.454 49.1523L115.725 49.5037C115.606 49.6479 115.463 49.774 115.298 49.8821C115.132 49.9867 114.953 50.0732 114.762 50.1416C114.575 50.2101 114.38 50.2606 114.178 50.293C113.977 50.3291 113.777 50.3471 113.578 50.3471C113.2 50.3471 112.85 50.284 112.53 50.1579C112.212 50.0281 111.937 49.8407 111.702 49.5956C111.472 49.3469 111.291 49.0405 111.162 48.6765C111.032 48.3125 110.967 47.8944 110.967 47.4222C110.967 47.0402 111.025 46.6834 111.14 46.3518C111.259 46.0202 111.428 45.7336 111.648 45.4921C111.868 45.2471 112.137 45.056 112.454 44.9191C112.771 44.7785 113.128 44.7082 113.524 44.7082ZM113.546 45.4165C113.081 45.4165 112.715 45.5516 112.448 45.8219C112.182 46.0886 112.016 46.4599 111.951 46.9356H114.93C114.93 46.7122 114.899 46.5085 114.838 46.3247C114.777 46.1373 114.687 45.9769 114.568 45.8436C114.449 45.7066 114.303 45.6021 114.13 45.53C113.96 45.4543 113.766 45.4165 113.546 45.4165Z" fill="white"/>
<path d="M120.881 50.2714C120.744 50.2714 120.658 50.2047 120.622 50.0714L120.535 49.4064C120.301 49.6911 120.033 49.92 119.73 50.093C119.431 50.2624 119.087 50.3471 118.697 50.3471C118.384 50.3471 118.099 50.2876 117.843 50.1687C117.587 50.0461 117.369 49.8677 117.189 49.6334C117.009 49.3992 116.87 49.1072 116.773 48.7576C116.675 48.408 116.627 48.0061 116.627 47.552C116.627 47.1483 116.681 46.7735 116.789 46.4274C116.897 46.0778 117.052 45.7751 117.254 45.5192C117.459 45.2633 117.708 45.0632 118 44.9191C118.292 44.7713 118.623 44.6974 118.995 44.6974C119.33 44.6974 119.616 44.7551 119.854 44.8704C120.092 44.9821 120.305 45.1407 120.492 45.3462V42.3078H121.455V50.2714H120.881ZM119.016 49.5686C119.33 49.5686 119.604 49.4965 119.838 49.3523C120.076 49.2081 120.294 49.0045 120.492 48.7414V46.0923C120.316 45.8544 120.121 45.6886 119.908 45.5949C119.699 45.4976 119.467 45.4489 119.211 45.4489C118.699 45.4489 118.306 45.6309 118.032 45.9949C117.758 46.359 117.621 46.878 117.621 47.552C117.621 47.9088 117.652 48.2152 117.713 48.4711C117.775 48.7234 117.865 48.9324 117.984 49.0982C118.103 49.2604 118.249 49.3793 118.422 49.455C118.595 49.5307 118.793 49.5686 119.016 49.5686Z" fill="white"/>
<path d="M130.769 48.6711C130.827 48.6711 130.879 48.6945 130.926 48.7414L131.337 49.1901C131.02 49.5577 130.634 49.8443 130.18 50.0497C129.729 50.2552 129.185 50.3579 128.547 50.3579C127.989 50.3579 127.482 50.2624 127.028 50.0714C126.574 49.8767 126.186 49.6064 125.866 49.2604C125.545 48.9108 125.296 48.4927 125.12 48.0061C124.943 47.5195 124.855 46.9843 124.855 46.4004C124.855 45.8165 124.948 45.2813 125.136 44.7947C125.327 44.3081 125.593 43.8901 125.936 43.5404C126.278 43.1908 126.687 42.9205 127.163 42.7295C127.643 42.5349 128.171 42.4375 128.747 42.4375C129.317 42.4375 129.807 42.5258 130.218 42.7025C130.632 42.8791 131 43.1187 131.321 43.4215L130.98 43.9027C130.955 43.9387 130.926 43.9693 130.894 43.9946C130.861 44.0162 130.814 44.027 130.753 44.027C130.706 44.027 130.656 44.0108 130.602 43.9784C130.551 43.9423 130.49 43.8991 130.418 43.8486C130.346 43.7981 130.261 43.7441 130.164 43.6864C130.066 43.6287 129.951 43.5747 129.818 43.5242C129.684 43.4738 129.529 43.4323 129.353 43.3999C129.176 43.3638 128.972 43.3458 128.742 43.3458C128.327 43.3458 127.947 43.4179 127.601 43.5621C127.259 43.7026 126.963 43.9045 126.714 44.1676C126.466 44.4307 126.271 44.7515 126.131 45.1299C125.994 45.5084 125.925 45.9319 125.925 46.4004C125.925 46.8834 125.994 47.3141 126.131 47.6925C126.271 48.071 126.46 48.3918 126.698 48.6549C126.94 48.9144 127.224 49.1126 127.552 49.2496C127.88 49.3865 128.234 49.455 128.612 49.455C128.843 49.455 129.05 49.4424 129.234 49.4172C129.418 49.3883 129.587 49.3451 129.742 49.2874C129.901 49.2298 130.047 49.1577 130.18 49.0712C130.317 48.9811 130.454 48.8747 130.591 48.7522C130.652 48.6981 130.712 48.6711 130.769 48.6711Z" fill="white"/>
<path d="M136.582 50.2714H136.155C136.061 50.2714 135.985 50.257 135.928 50.2281C135.87 50.1993 135.832 50.138 135.814 50.0443L135.706 49.5361C135.562 49.6659 135.421 49.783 135.284 49.8875C135.147 49.9885 135.003 50.075 134.852 50.147C134.7 50.2155 134.538 50.2678 134.365 50.3038C134.196 50.3399 134.007 50.3579 133.798 50.3579C133.585 50.3579 133.385 50.3291 133.197 50.2714C133.014 50.2101 132.853 50.12 132.716 50.0011C132.579 49.8821 132.469 49.7326 132.386 49.5523C132.307 49.3685 132.268 49.1523 132.268 48.9036C132.268 48.6873 132.327 48.4801 132.446 48.2818C132.565 48.08 132.756 47.9016 133.019 47.7466C133.286 47.5916 133.634 47.4655 134.062 47.3682C134.491 47.2672 135.016 47.2096 135.636 47.1952V46.7681C135.636 46.3427 135.544 46.022 135.36 45.8057C135.18 45.5859 134.911 45.4759 134.554 45.4759C134.32 45.4759 134.122 45.5066 133.96 45.5678C133.801 45.6255 133.662 45.6922 133.543 45.7679C133.428 45.84 133.327 45.9066 133.241 45.9679C133.158 46.0256 133.075 46.0544 132.992 46.0544C132.927 46.0544 132.869 46.0382 132.819 46.0058C132.772 45.9697 132.734 45.9265 132.705 45.876L132.532 45.5678C132.835 45.2759 133.161 45.0578 133.511 44.9137C133.861 44.7695 134.248 44.6974 134.673 44.6974C134.98 44.6974 135.252 44.7479 135.49 44.8488C135.728 44.9497 135.928 45.0903 136.09 45.2705C136.252 45.4507 136.375 45.6688 136.457 45.9247C136.54 46.1806 136.582 46.4617 136.582 46.7681V50.2714ZM134.084 49.6821C134.253 49.6821 134.408 49.6659 134.549 49.6334C134.69 49.5974 134.821 49.5487 134.944 49.4875C135.07 49.4226 135.189 49.3451 135.301 49.255C135.416 49.1649 135.528 49.0622 135.636 48.9468V47.8061C135.192 47.8205 134.816 47.8565 134.506 47.9142C134.196 47.9683 133.944 48.0404 133.749 48.1305C133.554 48.2206 133.412 48.3269 133.322 48.4494C133.235 48.572 133.192 48.7089 133.192 48.8603C133.192 49.0045 133.215 49.1288 133.262 49.2334C133.309 49.3379 133.372 49.4244 133.452 49.4929C133.531 49.5577 133.625 49.6064 133.733 49.6388C133.841 49.6677 133.958 49.6821 134.084 49.6821Z" fill="white"/>
<path d="M138.04 50.2714V44.7947H138.591C138.696 44.7947 138.768 44.8145 138.807 44.8542C138.847 44.8938 138.874 44.9623 138.889 45.0596L138.953 45.9138C139.141 45.5318 139.372 45.2344 139.645 45.0218C139.923 44.8055 140.247 44.6974 140.619 44.6974C140.77 44.6974 140.907 44.7154 141.03 44.7515C141.152 44.7839 141.266 44.8308 141.37 44.892L141.246 45.6111C141.221 45.7012 141.165 45.7462 141.078 45.7462C141.028 45.7462 140.95 45.73 140.846 45.6976C140.741 45.6615 140.595 45.6435 140.408 45.6435C140.073 45.6435 139.791 45.7408 139.564 45.9355C139.341 46.1301 139.154 46.413 139.002 46.7843V50.2714H138.04Z" fill="white"/>
<path d="M151.358 46.4004C151.358 46.9807 151.266 47.5087 151.082 47.9845C150.898 48.4602 150.639 48.8675 150.303 49.2063C149.968 49.5451 149.566 49.8082 149.098 49.9957C148.629 50.1795 148.11 50.2714 147.541 50.2714H144.643V42.524H147.541C148.11 42.524 148.629 42.6178 149.098 42.8052C149.566 42.989 149.968 43.2521 150.303 43.5945C150.639 43.9333 150.898 44.3406 151.082 44.8163C151.266 45.2921 151.358 45.8201 151.358 46.4004ZM150.282 46.4004C150.282 45.9247 150.217 45.4994 150.087 45.1245C149.957 44.7497 149.774 44.4325 149.536 44.173C149.298 43.9135 149.009 43.7152 148.671 43.5783C148.332 43.4413 147.955 43.3728 147.541 43.3728H145.697V49.4226H147.541C147.955 49.4226 148.332 49.3541 148.671 49.2171C149.009 49.0802 149.298 48.8838 149.536 48.6278C149.774 48.3683 149.957 48.0512 150.087 47.6763C150.217 47.3015 150.282 46.8762 150.282 46.4004Z" fill="white"/>
<path d="M154.801 44.7082C155.129 44.7082 155.432 44.7641 155.709 44.8758C155.987 44.9839 156.226 45.1425 156.428 45.3516C156.63 45.557 156.787 45.8129 156.898 46.1193C157.014 46.422 157.071 46.7681 157.071 47.1573C157.071 47.3087 157.055 47.4096 157.023 47.4601C156.99 47.5105 156.929 47.5358 156.839 47.5358H153.195C153.202 47.8818 153.249 48.1827 153.336 48.4386C153.422 48.6945 153.541 48.909 153.692 49.082C153.844 49.2514 154.024 49.3793 154.233 49.4658C154.442 49.5487 154.676 49.5902 154.936 49.5902C155.177 49.5902 155.385 49.5632 155.558 49.5091C155.734 49.4514 155.886 49.3901 156.012 49.3253C156.138 49.2604 156.242 49.2009 156.325 49.1469C156.412 49.0892 156.486 49.0604 156.547 49.0604C156.626 49.0604 156.688 49.091 156.731 49.1523L157.001 49.5037C156.882 49.6479 156.74 49.774 156.574 49.8821C156.408 49.9867 156.23 50.0732 156.039 50.1416C155.851 50.2101 155.657 50.2606 155.455 50.293C155.253 50.3291 155.053 50.3471 154.855 50.3471C154.476 50.3471 154.127 50.284 153.806 50.1579C153.489 50.0281 153.213 49.8407 152.979 49.5956C152.748 49.3469 152.568 49.0405 152.438 48.6765C152.308 48.3125 152.244 47.8944 152.244 47.4222C152.244 47.0402 152.301 46.6834 152.417 46.3518C152.535 46.0202 152.705 45.7336 152.925 45.4921C153.145 45.2471 153.413 45.056 153.73 44.9191C154.047 44.7785 154.404 44.7082 154.801 44.7082ZM154.822 45.4165C154.357 45.4165 153.992 45.5516 153.725 45.8219C153.458 46.0886 153.292 46.4599 153.228 46.9356H156.206C156.206 46.7122 156.176 46.5085 156.115 46.3247C156.053 46.1373 155.963 45.9769 155.844 45.8436C155.725 45.7066 155.579 45.6021 155.406 45.53C155.237 45.4543 155.042 45.4165 154.822 45.4165Z" fill="white"/>
<path d="M162.326 50.2714H161.898C161.805 50.2714 161.729 50.257 161.671 50.2281C161.614 50.1993 161.576 50.138 161.558 50.0443L161.45 49.5361C161.306 49.6659 161.165 49.783 161.028 49.8875C160.891 49.9885 160.747 50.075 160.595 50.147C160.444 50.2155 160.282 50.2678 160.109 50.3038C159.94 50.3399 159.75 50.3579 159.541 50.3579C159.329 50.3579 159.129 50.3291 158.941 50.2714C158.757 50.2101 158.597 50.12 158.46 50.0011C158.323 49.8821 158.213 49.7326 158.13 49.5523C158.051 49.3685 158.011 49.1523 158.011 48.9036C158.011 48.6873 158.071 48.4801 158.19 48.2818C158.309 48.08 158.5 47.9016 158.763 47.7466C159.029 47.5916 159.377 47.4655 159.806 47.3682C160.235 47.2672 160.759 47.2096 161.379 47.1952V46.7681C161.379 46.3427 161.288 46.022 161.104 45.8057C160.923 45.5859 160.655 45.4759 160.298 45.4759C160.064 45.4759 159.866 45.5066 159.703 45.5678C159.545 45.6255 159.406 45.6922 159.287 45.7679C159.172 45.84 159.071 45.9066 158.984 45.9679C158.901 46.0256 158.819 46.0544 158.736 46.0544C158.671 46.0544 158.613 46.0382 158.563 46.0058C158.516 45.9697 158.478 45.9265 158.449 45.876L158.276 45.5678C158.579 45.2759 158.905 45.0578 159.255 44.9137C159.604 44.7695 159.992 44.6974 160.417 44.6974C160.723 44.6974 160.996 44.7479 161.233 44.8488C161.471 44.9497 161.671 45.0903 161.834 45.2705C161.996 45.4507 162.118 45.6688 162.201 45.9247C162.284 46.1806 162.326 46.4617 162.326 46.7681V50.2714ZM159.828 49.6821C159.997 49.6821 160.152 49.6659 160.293 49.6334C160.433 49.5974 160.565 49.5487 160.687 49.4875C160.814 49.4226 160.932 49.3451 161.044 49.255C161.16 49.1649 161.271 49.0622 161.379 48.9468V47.8061C160.936 47.8205 160.559 47.8565 160.249 47.9142C159.94 47.9683 159.687 48.0404 159.493 48.1305C159.298 48.2206 159.156 48.3269 159.065 48.4494C158.979 48.572 158.936 48.7089 158.936 48.8603C158.936 49.0045 158.959 49.1288 159.006 49.2334C159.053 49.3379 159.116 49.4244 159.195 49.4929C159.275 49.5577 159.368 49.6064 159.476 49.6388C159.584 49.6677 159.702 49.6821 159.828 49.6821Z" fill="white"/>
<path d="M164.854 42.3078V50.2714H163.892V42.3078H164.854Z" fill="white"/>
<path d="M168.718 44.7082C169.046 44.7082 169.349 44.7641 169.626 44.8758C169.904 44.9839 170.143 45.1425 170.345 45.3516C170.547 45.557 170.704 45.8129 170.816 46.1193C170.931 46.422 170.989 46.7681 170.989 47.1573C170.989 47.3087 170.972 47.4096 170.94 47.4601C170.908 47.5105 170.846 47.5358 170.756 47.5358H167.112C167.12 47.8818 167.166 48.1827 167.253 48.4386C167.339 48.6945 167.458 48.909 167.61 49.082C167.761 49.2514 167.941 49.3793 168.15 49.4658C168.359 49.5487 168.594 49.5902 168.853 49.5902C169.095 49.5902 169.302 49.5632 169.475 49.5091C169.652 49.4514 169.803 49.3901 169.929 49.3253C170.055 49.2604 170.16 49.2009 170.243 49.1469C170.329 49.0892 170.403 49.0604 170.464 49.0604C170.544 49.0604 170.605 49.091 170.648 49.1523L170.918 49.5037C170.799 49.6479 170.657 49.774 170.491 49.8821C170.326 49.9867 170.147 50.0732 169.956 50.1416C169.769 50.2101 169.574 50.2606 169.372 50.293C169.17 50.3291 168.97 50.3471 168.772 50.3471C168.394 50.3471 168.044 50.284 167.723 50.1579C167.406 50.0281 167.13 49.8407 166.896 49.5956C166.665 49.3469 166.485 49.0405 166.355 48.6765C166.226 48.3125 166.161 47.8944 166.161 47.4222C166.161 47.0402 166.218 46.6834 166.334 46.3518C166.453 46.0202 166.622 45.7336 166.842 45.4921C167.062 45.2471 167.33 45.056 167.648 44.9191C167.965 44.7785 168.322 44.7082 168.718 44.7082ZM168.74 45.4165C168.275 45.4165 167.909 45.5516 167.642 45.8219C167.375 46.0886 167.21 46.4599 167.145 46.9356H170.124C170.124 46.7122 170.093 46.5085 170.032 46.3247C169.97 46.1373 169.88 45.9769 169.761 45.8436C169.642 45.7066 169.497 45.6021 169.324 45.53C169.154 45.4543 168.959 45.4165 168.74 45.4165Z" fill="white"/>
<path d="M172.22 50.2714V44.7947H172.772C172.876 44.7947 172.948 44.8145 172.988 44.8542C173.028 44.8938 173.055 44.9623 173.069 45.0596L173.134 45.9138C173.322 45.5318 173.552 45.2344 173.826 45.0218C174.104 44.8055 174.428 44.6974 174.799 44.6974C174.951 44.6974 175.088 44.7154 175.21 44.7515C175.333 44.7839 175.446 44.8308 175.551 44.892L175.426 45.6111C175.401 45.7012 175.345 45.7462 175.259 45.7462C175.208 45.7462 175.131 45.73 175.026 45.6976C174.922 45.6615 174.776 45.6435 174.588 45.6435C174.253 45.6435 173.972 45.7408 173.745 45.9355C173.522 46.1301 173.334 46.413 173.183 46.7843V50.2714H172.22Z" fill="white"/>
<path d="M179.717 45.6976C179.674 45.7769 179.607 45.8165 179.517 45.8165C179.463 45.8165 179.402 45.7967 179.333 45.7571C179.265 45.7174 179.18 45.6742 179.079 45.6273C178.982 45.5768 178.865 45.5318 178.728 45.4921C178.591 45.4489 178.429 45.4273 178.241 45.4273C178.079 45.4273 177.933 45.4489 177.803 45.4921C177.674 45.5318 177.562 45.5877 177.468 45.6597C177.378 45.7318 177.308 45.8165 177.257 45.9138C177.21 46.0076 177.187 46.1103 177.187 46.222C177.187 46.3626 177.227 46.4797 177.306 46.5734C177.389 46.6671 177.497 46.7482 177.63 46.8167C177.764 46.8852 177.915 46.9465 178.084 47.0005C178.254 47.051 178.427 47.1069 178.603 47.1681C178.784 47.2258 178.958 47.2907 179.128 47.3628C179.297 47.4348 179.449 47.5249 179.582 47.6331C179.715 47.7412 179.822 47.8746 179.901 48.0331C179.984 48.1881 180.025 48.3756 180.025 48.5954C180.025 48.8477 179.98 49.082 179.89 49.2982C179.8 49.5109 179.667 49.6965 179.49 49.8551C179.313 50.0101 179.097 50.1326 178.841 50.2227C178.585 50.3128 178.29 50.3579 177.955 50.3579C177.573 50.3579 177.227 50.2966 176.917 50.1741C176.607 50.0479 176.344 49.8875 176.127 49.6929L176.354 49.3253C176.383 49.2784 176.417 49.2424 176.457 49.2171C176.497 49.1919 176.549 49.1793 176.614 49.1793C176.679 49.1793 176.747 49.2045 176.819 49.255C176.891 49.3054 176.978 49.3613 177.079 49.4226C177.183 49.4839 177.308 49.5397 177.452 49.5902C177.6 49.6406 177.783 49.6659 178.003 49.6659C178.191 49.6659 178.355 49.6424 178.495 49.5956C178.636 49.5451 178.753 49.4785 178.847 49.3956C178.94 49.3127 179.009 49.2171 179.052 49.109C179.099 49.0009 179.122 48.8856 179.122 48.763C179.122 48.6116 179.081 48.4873 178.998 48.39C178.919 48.289 178.812 48.2043 178.679 48.1359C178.546 48.0638 178.393 48.0025 178.22 47.952C178.05 47.898 177.875 47.8421 177.695 47.7845C177.519 47.7268 177.344 47.6619 177.171 47.5898C177.001 47.5141 176.85 47.4204 176.717 47.3087C176.583 47.197 176.475 47.06 176.392 46.8978C176.313 46.732 176.273 46.532 176.273 46.2977C176.273 46.0886 176.316 45.8886 176.403 45.6976C176.49 45.503 176.616 45.3336 176.781 45.1894C176.947 45.0416 177.151 44.9245 177.392 44.838C177.634 44.7515 177.91 44.7082 178.22 44.7082C178.58 44.7082 178.903 44.7659 179.187 44.8812C179.476 44.993 179.724 45.1479 179.933 45.3462L179.717 45.6976Z" fill="white"/>
<path d="M181.27 50.2714V42.3078H182.232V45.53C182.466 45.2813 182.726 45.0831 183.011 44.9353C183.295 44.7839 183.623 44.7082 183.995 44.7082C184.294 44.7082 184.557 44.7587 184.784 44.8596C185.015 44.9569 185.206 45.0975 185.357 45.2813C185.512 45.4615 185.629 45.6796 185.708 45.9355C185.788 46.1914 185.827 46.4743 185.827 46.7843V50.2714H184.865V46.7843C184.865 46.3698 184.77 46.049 184.578 45.8219C184.391 45.5913 184.103 45.4759 183.713 45.4759C183.429 45.4759 183.162 45.5444 182.913 45.6814C182.668 45.8183 182.441 46.0039 182.232 46.2382V50.2714H181.27Z" fill="white"/>
<path d="M188.349 44.7947V50.2714H187.386V44.7947H188.349ZM188.565 43.0755C188.565 43.1692 188.545 43.2575 188.505 43.3404C188.469 43.4197 188.419 43.4918 188.354 43.5567C188.293 43.6179 188.221 43.6666 188.138 43.7026C188.055 43.7387 187.966 43.7567 187.873 43.7567C187.779 43.7567 187.691 43.7387 187.608 43.7026C187.529 43.6666 187.456 43.6179 187.392 43.5567C187.33 43.4918 187.282 43.4197 187.246 43.3404C187.21 43.2575 187.192 43.1692 187.192 43.0755C187.192 42.9818 187.21 42.8935 187.246 42.8106C187.282 42.7241 187.33 42.6502 187.392 42.5889C187.456 42.524 187.529 42.4736 187.608 42.4375C187.691 42.4015 187.779 42.3835 187.873 42.3835C187.966 42.3835 188.055 42.4015 188.138 42.4375C188.221 42.4736 188.293 42.524 188.354 42.5889C188.419 42.6502 188.469 42.7241 188.505 42.8106C188.545 42.8935 188.565 42.9818 188.565 43.0755Z" fill="white"/>
<path d="M190.045 52.1258V44.7947H190.618C190.755 44.7947 190.841 44.8614 190.877 44.9948L190.958 45.6435C191.193 45.3588 191.459 45.1299 191.758 44.9569C192.061 44.7839 192.409 44.6974 192.802 44.6974C193.115 44.6974 193.4 44.7587 193.656 44.8812C193.912 45.0002 194.13 45.1786 194.31 45.4165C194.49 45.6507 194.629 45.9427 194.727 46.2923C194.824 46.6419 194.872 47.0438 194.872 47.4979C194.872 47.9016 194.818 48.2782 194.71 48.6278C194.602 48.9739 194.447 49.2748 194.245 49.5307C194.044 49.783 193.795 49.983 193.499 50.1308C193.207 50.275 192.878 50.3471 192.51 50.3471C192.171 50.3471 191.881 50.2912 191.639 50.1795C191.402 50.0677 191.191 49.9092 191.007 49.7037V52.1258H190.045ZM192.483 45.4759C192.169 45.4759 191.894 45.548 191.656 45.6922C191.421 45.8364 191.205 46.04 191.007 46.3031V48.9522C191.184 49.1901 191.376 49.3577 191.585 49.455C191.798 49.5523 192.034 49.601 192.294 49.601C192.802 49.601 193.193 49.419 193.467 49.055C193.741 48.6909 193.878 48.1719 193.878 47.4979C193.878 47.1411 193.845 46.8347 193.78 46.5788C193.719 46.3229 193.629 46.1139 193.51 45.9517C193.391 45.7859 193.245 45.6651 193.072 45.5895C192.899 45.5138 192.703 45.4759 192.483 45.4759Z" fill="white"/>
<path d="M199.146 45.6976C199.103 45.7769 199.036 45.8165 198.946 45.8165C198.892 45.8165 198.831 45.7967 198.762 45.7571C198.694 45.7174 198.609 45.6742 198.508 45.6273C198.411 45.5768 198.294 45.5318 198.157 45.4921C198.02 45.4489 197.858 45.4273 197.67 45.4273C197.508 45.4273 197.362 45.4489 197.232 45.4921C197.103 45.5318 196.991 45.5877 196.897 45.6597C196.807 45.7318 196.737 45.8165 196.686 45.9138C196.64 46.0076 196.616 46.1103 196.616 46.222C196.616 46.3626 196.656 46.4797 196.735 46.5734C196.818 46.6671 196.926 46.7482 197.059 46.8167C197.193 46.8852 197.344 46.9465 197.514 47.0005C197.683 47.051 197.856 47.1069 198.033 47.1681C198.213 47.2258 198.388 47.2907 198.557 47.3628C198.726 47.4348 198.878 47.5249 199.011 47.6331C199.145 47.7412 199.251 47.8746 199.33 48.0331C199.413 48.1881 199.454 48.3756 199.454 48.5954C199.454 48.8477 199.409 49.082 199.319 49.2982C199.229 49.5109 199.096 49.6965 198.919 49.8551C198.743 50.0101 198.526 50.1326 198.27 50.2227C198.015 50.3128 197.719 50.3579 197.384 50.3579C197.002 50.3579 196.656 50.2966 196.346 50.1741C196.036 50.0479 195.773 49.8875 195.556 49.6929L195.784 49.3253C195.812 49.2784 195.847 49.2424 195.886 49.2171C195.926 49.1919 195.978 49.1793 196.043 49.1793C196.108 49.1793 196.176 49.2045 196.249 49.255C196.321 49.3054 196.407 49.3613 196.508 49.4226C196.613 49.4839 196.737 49.5397 196.881 49.5902C197.029 49.6406 197.213 49.6659 197.432 49.6659C197.62 49.6659 197.784 49.6424 197.924 49.5956C198.065 49.5451 198.182 49.4785 198.276 49.3956C198.37 49.3127 198.438 49.2171 198.481 49.109C198.528 49.0009 198.552 48.8856 198.552 48.763C198.552 48.6116 198.51 48.4873 198.427 48.39C198.348 48.289 198.242 48.2043 198.108 48.1359C197.975 48.0638 197.822 48.0025 197.649 47.952C197.479 47.898 197.305 47.8421 197.124 47.7845C196.948 47.7268 196.773 47.6619 196.6 47.5898C196.431 47.5141 196.279 47.4204 196.146 47.3087C196.012 47.197 195.904 47.06 195.821 46.8978C195.742 46.732 195.702 46.532 195.702 46.2977C195.702 46.0886 195.746 45.8886 195.832 45.6976C195.919 45.503 196.045 45.3336 196.211 45.1894C196.376 45.0416 196.58 44.9245 196.822 44.838C197.063 44.7515 197.339 44.7082 197.649 44.7082C198.009 44.7082 198.332 44.7659 198.617 44.8812C198.905 44.993 199.154 45.1479 199.363 45.3462L199.146 45.6976Z" fill="white"/>
<path d="M0.427551 33.4403V0H11.6218C16.1851 0 19.7502 0.713013 22.3883 2.06774C25.025 3.40136 27.2081 5.48525 28.6628 8.05704C30.2174 10.6913 31.0305 13.6971 31.0158 16.7558C31.0214 20.0987 30.0075 23.3639 28.1093 26.1157C26.2111 28.8674 23.5189 30.9749 20.3919 32.1569C19.2608 32.5972 18.0912 32.9314 16.8981 33.1551C14.9093 33.3687 12.9078 33.4402 10.9088 33.369H0.427551V33.4403ZM11.194 4.27808H5.20473V29.2335H11.3366C13.2034 29.2799 15.0694 29.1124 16.8981 28.7344C18.0443 28.4565 19.1476 28.0247 20.178 27.451C21.061 26.9376 21.8755 26.3148 22.6022 25.5972C23.7713 24.3878 24.6884 22.9583 25.3005 21.3916C25.9125 19.8248 26.2071 18.1521 26.1673 16.4706C26.2411 14.1957 25.6453 11.9492 24.4538 10.0099C23.2623 8.07058 21.5276 6.5238 19.465 5.5615C18.4217 5.06668 17.3195 4.70726 16.1851 4.49198C14.5276 4.3155 12.8606 4.24405 11.194 4.27808Z" fill="white"/>
<path d="M44.4208 11.4082C47.5146 11.3425 50.5105 12.4948 52.763 14.6168C53.8555 15.6795 54.717 16.9563 55.2936 18.3671C55.8702 19.778 56.1496 21.2927 56.1142 22.8164C56.1549 24.2986 55.8768 25.7724 55.2987 27.1378C54.7205 28.5032 53.8558 29.7286 52.763 30.7308C51.6293 31.7931 50.2946 32.6178 48.8375 33.1566C47.3804 33.6954 45.8302 33.9373 44.2781 33.8681C42.7558 33.9067 41.241 33.643 39.8213 33.0923C38.4016 32.5415 37.1052 31.7147 36.0072 30.6595C34.9284 29.6349 34.0785 28.3937 33.5133 27.0174C32.948 25.6411 32.6802 24.1609 32.7273 22.6738C32.6882 21.1707 32.9664 19.6763 33.5438 18.288C34.1213 16.8997 34.985 15.6487 36.0785 14.6168C38.3238 12.4834 41.3246 11.3293 44.4208 11.4082ZM44.2068 15.3298C43.2551 15.3037 42.3081 15.4738 41.4249 15.8296C40.5417 16.1853 39.7412 16.719 39.0732 17.3975C38.4021 18.0971 37.8793 18.9251 37.5362 19.8318C37.1931 20.7385 37.0368 21.7052 37.0767 22.6738C37.0522 23.636 37.2228 24.5933 37.5781 25.4878C37.9335 26.3824 38.4663 27.1957 39.1445 27.8788C39.8441 28.5499 40.6721 29.0727 41.5788 29.4157C42.4855 29.7588 43.4521 29.9151 44.4208 29.8752C45.3355 29.9251 46.2509 29.7924 47.1138 29.4848C47.9767 29.1772 48.7697 28.7009 49.4467 28.0837C50.1236 27.4665 50.6709 26.7208 51.0566 25.8899C51.4424 25.059 51.6589 24.1596 51.6935 23.2442V22.6738C51.7234 21.7045 51.5484 20.7398 51.1798 19.8429C50.8112 18.9459 50.2573 18.1369 49.5544 17.4688C48.8582 16.7635 48.024 16.2095 47.1038 15.8414C46.1836 15.4733 45.1974 15.2992 44.2068 15.3298Z" fill="white"/>
<path d="M62.8165 11.4082V14.2603C64.7416 12.0499 66.9519 10.9804 69.4475 10.9804C70.7831 10.9715 72.0937 11.3424 73.2265 12.0499C74.3723 12.7676 75.3072 13.7763 75.9359 14.9733C76.5776 16.1854 76.8628 18.1818 76.8628 20.82V33.5116H72.5847V20.9626C72.5847 18.6809 72.2282 17.1123 71.5865 16.1141C70.9448 15.1159 69.7327 14.6881 68.1641 14.6881C66.0963 14.6881 64.3851 15.7576 62.9591 17.8253V33.5116H58.5384V11.4082H62.8165Z" fill="white"/>
<path d="M99.1088 22.4599C99.1088 22.4599 88.4849 23.9572 83.7077 23.1016C82.7095 22.959 84.6346 26.8806 85.9893 28.0214C86.6829 28.6158 87.4874 29.0668 88.3563 29.3483C89.2253 29.6298 90.1414 29.7362 91.0517 29.6613C93.9224 29.5434 96.6761 28.492 98.8949 26.6667L99.0375 30.9447C97.8498 31.7991 96.5554 32.4943 95.1872 33.0125C93.7103 33.4864 92.1742 33.7504 90.6239 33.7968C88.5662 33.9874 86.4998 33.5392 84.7059 32.5134C83.155 31.522 81.8602 30.1784 80.9269 28.5918C79.9115 26.8096 79.3714 24.7962 79.3583 22.7451C79.2157 19.3939 80.0713 16.6132 81.8539 14.4742C82.7379 13.4145 83.8372 12.5551 85.0788 11.9527C86.3204 11.3504 87.6758 11.0189 89.0553 10.9804C90.3665 10.8699 91.6855 11.0633 92.9098 11.5456C94.134 12.0279 95.2306 12.7861 96.1141 13.7611C97.8966 15.7576 98.8948 18.467 99.0375 21.8895L99.1088 22.4599ZM84.6346 20.4635C85.2763 19.9644 94.9733 19.7505 95.6863 20.0357C96.3993 20.3209 94.902 16.9697 93.9751 16.0428C93.4606 15.5908 92.862 15.2447 92.2135 15.0245C91.565 14.8043 90.8795 14.7142 90.1961 14.7594C89.494 14.7596 88.7989 14.8983 88.1504 15.1674C87.502 15.4366 86.913 15.831 86.4171 16.328C85.4189 17.3262 83.9929 20.9626 84.6346 20.4635Z" fill="white"/>
<path d="M136.471 17.4688C136.471 20.8913 135.829 23.6007 134.617 25.6685C133.504 27.5984 132.027 29.2936 130.267 30.6595C127.915 32.5134 124.563 33.4403 120.357 33.4403H102.531V0.285206H116.221C117.987 0.259492 119.751 0.378728 121.497 0.641712C122.85 0.84641 124.185 1.1539 125.49 1.5615C126.537 1.89614 127.542 2.35073 128.485 2.91622C129.266 3.37386 130.005 3.89873 130.695 4.48485C131.838 5.43728 132.845 6.54068 133.69 7.76471C134.564 9.14458 135.259 10.6301 135.758 12.1854C136.215 13.9099 136.454 15.6848 136.471 17.4688ZM126.275 17.041C126.275 14.3316 125.775 12.2638 124.777 10.6952C123.893 9.31002 122.596 8.23757 121.07 7.62924C119.651 7.12152 118.156 6.85638 116.649 6.84492H112.086C113.726 9.69697 113.369 24.1711 112.086 26.5241H116.649C119.04 26.5881 121.397 25.943 123.423 24.6702C125.348 23.5294 126.275 20.9626 126.275 17.041Z" fill="white"/>
<path d="M163.565 22.0321C163.565 22.0321 151.729 24.5276 146.667 23.672C145.526 23.4581 147.95 26.3102 149.305 27.1658C150.636 28.0301 152.215 28.4312 153.797 28.3066C157.131 28.0222 160.365 27.0252 163.28 25.3832L163.565 30.7308C162.123 31.5344 160.621 32.2257 159.073 32.7986C156.883 33.5177 154.603 33.9257 152.3 34.0107C149.666 34.2313 147.019 33.7901 144.599 32.7273C142.554 31.848 140.834 30.3525 139.679 28.4492C138.508 26.5061 137.846 24.299 137.754 22.0321C137.617 19.8024 138.033 17.5735 138.966 15.5437C139.955 13.5583 141.521 11.9181 143.458 10.8378C145.774 9.54928 148.367 8.83987 151.016 8.77006C152.993 8.63592 154.974 8.97824 156.791 9.76827C158.714 10.5803 160.352 11.9452 161.497 13.6898C162.901 15.9119 163.666 18.4774 163.708 21.1052L163.565 22.0321ZM157.077 18.7522C157.932 18.9661 156.506 15.9715 155.722 15.0446C155.286 14.5892 154.749 14.2424 154.155 14.0319C153.56 13.8214 152.925 13.7531 152.3 13.8324C151.654 13.8411 151.019 13.9926 150.44 14.2762C149.86 14.5598 149.351 14.9683 148.948 15.4724C148.093 16.4706 146.881 19.6078 147.808 19.2513C148.948 18.8235 155.294 18.3244 157.077 18.7522Z" fill="white"/>
<path d="M190.588 32.221C189.446 32.6873 188.28 33.0919 187.095 33.4332C185.843 33.7861 184.542 33.9307 183.244 33.861C181.818 33.861 180.82 33.6471 180.321 33.0767C179.774 32.565 179.358 31.9292 179.109 31.2228C178.191 31.999 177.156 32.6247 176.043 33.0767C174.629 33.5957 173.128 33.8377 171.622 33.7897C170.141 33.8408 168.671 33.5223 167.344 32.8628C166.37 32.3515 165.574 31.5557 165.062 30.5811C164.64 29.6897 164.421 28.7155 164.421 27.7291C164.356 26.3979 164.76 25.0861 165.562 24.0214C166.383 22.9876 167.432 22.1579 168.628 21.5972C170.26 20.8201 171.953 20.1762 173.69 19.672L176.399 18.8164C176.861 18.6776 177.313 18.5109 177.754 18.3173C178.111 18.1747 178.396 18.0321 178.681 17.8895C178.734 16.9114 178.485 15.9408 177.968 15.1087C177.469 14.467 176.471 14.1105 174.902 14.1105C173.088 14.1038 171.3 14.5446 169.697 15.394C168.069 16.2324 166.578 17.3144 165.276 18.6025V11.9715C166.336 11.174 167.515 10.5484 168.77 10.1177C170.013 9.62967 171.304 9.27127 172.62 9.04814C173.987 8.82026 175.37 8.70105 176.756 8.69164C180.25 8.69164 182.888 9.40465 184.67 10.7594C185.545 11.404 186.244 12.257 186.705 13.2407C187.165 14.2245 187.373 15.3078 187.308 16.3922V25.8039C187.293 26.4806 187.389 27.1551 187.594 27.8004C187.643 28.0023 187.764 28.1791 187.935 28.2974C188.106 28.4157 188.314 28.4672 188.521 28.4421C189.303 28.3794 190.06 28.1353 190.731 27.7291L190.588 32.221ZM178.61 27.5865V21.8111C177.062 22.3889 175.58 23.1298 174.189 24.0214C173.742 24.3156 173.376 24.7184 173.127 25.1923C172.877 25.6661 172.752 26.1955 172.763 26.7309C172.739 27.0526 172.783 27.3758 172.891 27.6798C172.999 27.9838 173.169 28.2621 173.39 28.4968C173.611 28.7316 173.879 28.9176 174.176 29.0433C174.473 29.1689 174.793 29.2312 175.116 29.2264C175.725 29.2471 176.325 29.0722 176.827 28.7273C177.447 28.389 178.043 28.0078 178.61 27.5865Z" fill="white"/>
<path d="M199.857 33.5116H191.301V0.285202H199.857V33.5116Z" fill="white"/>
</svg>
